<?xml version="1.0" encoding="utf-8"?>
<!-- Generator: Adobe Illustrator 21.1.0, SVG Export Plug-In . SVG Version: 6.00 Build 0)  -->
<svg version="1.1" xmlns="http://www.w3.org/2000/svg" xmlns:xlink="http://www.w3.org/1999/xlink" x="0px" y="0px"
	 viewBox="0 0 1000 1000" style="enable-background:new 0 0 1000 1000;" xml:space="preserve">
<style type="text/css">
	.st0{fill:#A9DD57;}
	.st1{fill:#EDD045;}
	.st2{fill:#F37C48;}
	.st3{fill:#FFFFFF;}
</style>
<g id="Layer_8_copy">
	<path class="st0" d="M725.7,461c-8.2,20.3-21.3,43-37.3,66.4c-6.1,8.9-12.6,18-19.4,27.1C597.8,649.4,494.7,747,494.7,747
		s-187-177-231-286s-40-221,37-302c2-2.1,4.1-4.2,6.1-6.3c48.6-48.7,98.9-70.6,147.2-78.2c1.5-0.9,3.1-1.4,4.8-1.6
		c11.7-1.2,23.8-1.8,36-1.7c12.3-0.1,24.3,0.5,36,1.7c1.7,0.2,3.3,0.7,4.8,1.6c47.8,7.5,97.7,29.1,145.9,76.9
		c2.5,2.4,4.9,4.9,7.3,7.5C765.7,240,769.7,352,725.7,461z"/>
</g>
<g id="Layer_4_copy">
	<path class="st1" d="M725.7,461c-8.2,20.3-21.3,43-37.3,66.4c-6.1,8.9-12.6,18-19.4,27.1L477.7,350l203.7-198.5
		c2.5,2.4,4.9,4.9,7.3,7.5C765.7,240,769.7,352,725.7,461z"/>
	<path class="st2" d="M688.3,527.4C618.5,629.8,494.7,747,494.7,747s-187-177-231-286s-40-221,37-302c2-2.1,4.1-4.2,6.1-6.3
		l60.7,59.6l252.8,248.2L688.3,527.4z"/>
</g>
<g id="Layer_6_copy_2">
	<path class="st3" d="M658.1,215.2c-2.5-2.5-8.6-1.2-9.8,0c-1.2,1.2-61.4,62.6-65.1,65.1c-3.7,2.5-19.2-0.8-20.4-2
		c-1.2-1.2,74.4-75.5,75.6-76.8c1.2-1.2,1.9-4.7-0.5-7.2c-2.5-2.5-7.2-1.1-8.5,0.2c-1.2,1.2-73.4,73.6-74.6,73.6
		c-0.6,0-8-18.1-5.6-21.8c2.5-3.7,63.9-63.9,65.1-65.1c1.2-1.2,2.5-7.4,0-9.8c-2.5-2.5-6.1-1.2-8.6,0c-2.5,1.2-25.8,25.8-33.2,33.2
		c-7.4,7.4-43,45.4-44.2,49.1c-1.2,3.7,0,28.2-1.2,31.9c-1.2,3.7-39.3,38.1-44.5,43.1c-5.2,5-61.2,49-84.5,67.4s-59,51.6-60.2,63.9
		c-1.1,10.5,2.4,17.4,8,23c0.1,0.1,0.2,0.2,0.2,0.2c0.1,0.1,0.2,0.2,0.2,0.2c5.6,5.6,12.5,9.1,23,8c12.3-1.2,45.4-36.8,63.9-60.2
		s62.4-79.3,67.4-84.5s39.4-43.2,43.1-44.5c3.7-1.2,28.2,0,31.9-1.2c3.7-1.2,41.8-36.8,49.1-44.2c7.4-7.4,31.9-30.7,33.2-33.2
		C659.3,221.4,660.6,217.7,658.1,215.2z"/>
</g>
<g id="Layer_7_copy">
	<path class="st3" d="M643.7,444.6c-16-22.1-111.8-93.3-144.9-125.3s-29.5-36.8-31.9-44.2c-2.5-7.4,1.2-22.1-4.9-39.3
		s-36.8-45.4-59-57.7c-22-12.2-53.6-9.9-62.4-0.2c-9.7,8.9-12,40.5,0.2,62.4c12.3,22.1,40.5,52.8,57.7,59
		c17.2,6.1,31.9,2.5,39.3,4.9c7.4,2.5,12.3-1.2,44.2,31.9c31.9,33.2,103.2,129,125.3,144.9c22.1,16,31.9,11.1,39.3,6.1
		c0.8-0.5,1.5-1.2,2.1-1.8c0.4-0.4,0.8-0.9,1.2-1.4C654.8,476.5,659.7,466.7,643.7,444.6z"/>
	<g>
		<path class="st2" d="M249.6,850.8h-70.8v1.4c0,9.6,2.7,17.3,8.2,23.2c5.5,5.9,12.6,8.8,21.4,8.8c6,0,11.4-1.6,16.2-4.8
			c4.8-3.2,9.1-8.1,12.8-14.6l11.6,7.8c-4.5,8.1-10.2,14.2-17.2,18.3c-7,4.1-15,6.2-24.2,6.2c-13.6,0-24.6-4.5-33-13.5
			S162,862.7,162,848.1c0-14,4.2-25.5,12.5-34.4c8.3-8.9,19-13.4,32.1-13.4c13.2,0,23.7,4.2,31.4,12.7c7.7,8.5,11.6,20,11.6,34.7
			V850.8z M233.2,838.4c-0.5-7.9-3.1-13.9-7.9-18.2c-4.7-4.3-11.2-6.4-19.4-6.4c-7.4,0-13.6,2.2-18.6,6.7
			c-4.9,4.5-7.8,10.4-8.6,17.9H233.2z"/>
		<path class="st2" d="M273.4,893.2V741.8H289v151.4H273.4z"/>
		<path class="st2" d="M321,741.8h15.1v78.8c3.5-6.6,7.9-11.6,13.4-15c5.5-3.4,11.9-5,19.2-5c12.8,0,23.1,4.4,30.7,13.1
			c7.6,8.7,11.5,20.4,11.5,35.1c0,14.5-3.9,26.2-11.7,35c-7.8,8.8-18.2,13.2-31.1,13.2c-6.9,0-13.2-1.7-18.8-5.2
			s-10.3-8.4-13.8-14.8v16.2H321V741.8z M335.6,848.9c0,10.4,2.7,18.6,8,24.4c5.3,5.9,12.7,8.8,22,8.8c9.1,0,16.3-3.1,21.4-9.3
			c5.2-6.2,7.8-14.8,7.8-25.8c0-9.8-2.5-17.4-7.6-22.9c-5.1-5.5-12.1-8.3-21.1-8.3c-9.1,0-16.5,3-22.1,9.1
			C338.4,830.9,335.6,839,335.6,848.9z"/>
		<path class="st2" d="M449.8,803.8v43.9c0,12.8,1.9,21.8,5.7,26.9c3.8,5.1,10.2,7.7,19.3,7.7c9,0,15.4-2.5,19.2-7.6
			c3.7-5,5.6-14,5.6-27v-43.9h15.6v52.1c0,13.5-3.5,23.7-10.4,30.6c-6.9,6.9-17.1,10.4-30.5,10.4c-13.3,0-23.4-3.5-30.3-10.4
			c-6.9-7-10.4-17.2-10.4-30.6v-52.1H449.8z"/>
		<path class="st2" d="M535.3,878.1l13.1-8.8c2.5,4.8,5.6,8.3,9.4,10.7c3.8,2.4,8.2,3.6,13.4,3.6c5,0,9.1-1.2,12.2-3.7
			c3.1-2.5,4.6-5.7,4.6-9.8c0-3.1-1.1-5.7-3.2-7.8c-2.1-2.1-5.7-4-10.9-5.8c-0.5-0.2-1.4-0.5-2.5-0.9c-21.7-7.5-32.6-16.9-32.6-28.1
			c0-7.9,2.9-14.4,8.8-19.4c5.9-5,13.5-7.5,22.9-7.5c7.7,0,14.4,1.5,19.9,4.6c5.5,3.1,9.5,7.5,11.9,13.1l-12.4,7.6
			c-1.8-4.1-4.5-7.3-8.1-9.5c-3.5-2.2-7.7-3.3-12.4-3.3c-4.5,0-8.2,1.3-11,3.8c-2.8,2.5-4.2,5.7-4.2,9.6c0,5.5,5.9,10.1,17.8,13.8
			c2.2,0.7,4,1.3,5.3,1.7c9.7,3.1,16.5,6.7,20.3,10.7s5.7,9.3,5.7,15.9c0,8.5-3,15.3-9,20.6c-6,5.2-13.9,7.9-23.6,7.9
			c-8.3,0-15.4-1.6-21.2-4.7C543.5,889.2,538.8,884.4,535.3,878.1z"/>
		<path class="st2" d="M619,848.7c0-6.6,1.2-12.8,3.6-18.6c2.4-5.8,5.9-11,10.5-15.6c4.6-4.6,9.9-8,15.7-10.4
			c5.9-2.4,12.1-3.6,18.8-3.6c6.5,0,12.7,1.2,18.5,3.6c5.8,2.4,11.1,5.9,15.9,10.5c4.6,4.5,8.1,9.7,10.5,15.5
			c2.4,5.8,3.6,12,3.6,18.5c0,6.5-1.2,12.6-3.6,18.4c-2.4,5.8-5.9,10.9-10.5,15.4c-4.8,4.7-10.1,8.3-16,10.7
			c-5.9,2.5-12,3.7-18.4,3.7c-6.6,0-12.8-1.2-18.7-3.7c-5.9-2.4-11.1-5.9-15.8-10.5c-4.6-4.7-8.1-9.9-10.5-15.6
			C620.2,861.5,619,855.3,619,848.7z M635.2,848.7c0,9.4,3.2,17.4,9.5,24c6.3,6.5,14,9.8,22.9,9.8c8.9,0,16.5-3.3,22.8-9.8
			s9.4-14.5,9.4-24c0-9.4-3.1-17.4-9.4-24s-13.8-9.8-22.8-9.8c-9,0-16.7,3.3-23,9.8C638.3,831.3,635.2,839.3,635.2,848.7z"/>
		<path class="st2" d="M823.2,803.8v87.8c0,9.7-0.7,16.6-2,20.7c-1.3,4.1-3.5,7.8-6.4,11c-4.2,4.5-9.3,7.8-15.3,10.1
			c-6,2.2-12.9,3.3-20.8,3.3c-13.5,0-24.1-3.1-31.7-9.3c-7.6-6.2-11.5-14.9-11.9-26.3h17.2v1.2c0,6.7,2.3,11.9,6.9,15.5
			c4.6,3.6,11.2,5.5,19.6,5.5c6.1,0,11.3-1,15.7-3c4.3-2,7.6-4.9,9.9-8.8c1.4-2.2,2.3-4.8,2.9-7.7s0.9-7.1,0.9-12.6v-7v-8
			c-3.5,6.4-8,11.3-13.6,14.7c-5.6,3.4-11.9,5.1-18.8,5.1c-12.8,0-23.2-4.4-31-13.1c-7.8-8.7-11.8-20.3-11.8-34.8
			c0-14.6,3.8-26.2,11.4-34.7c7.6-8.6,17.8-12.8,30.6-12.8c7.4,0,13.9,1.7,19.5,5c5.6,3.4,10,8.3,13.3,14.8v-16.6H823.2z
			 M808.3,848.7c0-10-2.7-18.1-8.2-24.2c-5.5-6.1-12.7-9.2-21.6-9.2c-9.2,0-16.3,2.8-21.5,8.5c-5.1,5.7-7.7,13.6-7.7,23.7
			c0,10.8,2.6,19.1,7.8,25s12.5,8.8,22,8.8c9.1,0,16.3-2.9,21.4-8.6S808.3,858.9,808.3,848.7z"/>
	</g>
	<g>
	</g>
	<g>
	</g>
	<g>
	</g>
	<g>
	</g>
	<g>
	</g>
	<g>
	</g>
	<g>
	</g>
	<g>
	</g>
	<g>
	</g>
	<g>
	</g>
	<g>
	</g>
	<g>
	</g>
	<g>
	</g>
	<g>
	</g>
	<g>
	</g>
</g>
</svg>
